<?xml version="1.0" standalone="no"?>
<!DOCTYPE svg PUBLIC "-//W3C//DTD SVG 20010904//EN"
 "http://www.w3.org/TR/2001/REC-SVG-20010904/DTD/svg10.dtd">
<svg version="1.0" xmlns="http://www.w3.org/2000/svg"
 width="875.000000pt" height="1280.000000pt" viewBox="0 0 875.000000 1280.000000"
 preserveAspectRatio="xMidYMid meet">
<g transform="translate(0.000000,1280.000000) scale(0.100000,-0.100000)"
fill="#000000" stroke="none">
<path d="M3441 12698 c-79 -557 -229 -1279 -371 -1783 -193 -687 -395 -1222
-675 -1790 -282 -571 -531 -966 -1094 -1740 -140 -192 -291 -402 -336 -465
-622 -876 -859 -1473 -947 -2390 -49 -506 48 -1133 257 -1665 214 -548 519
-1026 971 -1526 454 -503 1134 -1029 1629 -1259 117 -55 135 -62 135 -52 0 4
-39 57 -86 117 -421 537 -767 1156 -944 1686 -160 479 -189 887 -94 1348 38
185 104 375 193 556 120 243 204 368 717 1070 415 567 649 933 901 1410 302
569 587 1273 778 1920 15 50 31 94 35 98 20 22 762 -663 1071 -988 773 -812
1146 -1511 1360 -2550 60 -291 72 -437 66 -770 -7 -382 -40 -659 -133 -1122
-141 -704 -410 -1583 -739 -2413 -43 -107 -80 -202 -83 -209 -7 -20 33 9 193
138 1445 1161 2291 2563 2459 4076 42 378 55 661 36 824 -5 47 -14 151 -20
231 -61 790 -307 1635 -716 2452 -656 1311 -1703 2576 -3151 3806 -364 309
-1140 905 -1374 1056 l-27 17 -11 -83z"/>
</g>
</svg>
